<svg width="16" height="16" viewBox="0 0 16 16" xmlns="http://www.w3.org/2000/svg"><title>Combined Shape</title><path d="M0 8c0 4.4 3.6 8 8 8s8-3.6 8-8-3.6-8-8-8-8 3.6-8 8zm2 0c0-3.3 2.7-6 6-6s6 2.7 6 6-2.7 6-6 6-6-2.7-6-6zm9.014-1H9V5.024c0-.563-.445-1.026-1.007-1.026-.563 0-.993.463-.993 1.026V7H5.014a.986.986 0 0 0-1 .997c0 .563.524 1.006 1.086 1.006H7v2.002c0 .563.43 1.005.993 1.005A.997.997 0 0 0 9 11.005V9.003h2.014c.562 0 .967-.443.967-1.006 0-.562-.405-.997-.967-.997z" fill="#FFF" fill-rule="evenodd"/></svg>