<svg width="15" height="13" viewBox="0 0 15 13" xmlns="http://www.w3.org/2000/svg"><title>Combined Shape</title><path d="M0 .999C0 .447.443 0 .999 0h1.002C2.553 0 3 .443 3 .999v1.002A.996.996 0 0 1 2.001 3H.999A.996.996 0 0 1 0 2.001V.999zm6 0C6 .447 6.443 0 6.999 0h1.002C8.553 0 9 .443 9 .999v1.002A.996.996 0 0 1 8.001 3H6.999A.996.996 0 0 1 6 2.001V.999zm6 0c0-.552.443-.999.999-.999h1.002c.552 0 .999.443.999.999v1.002a.996.996 0 0 1-.999.999h-1.002A.996.996 0 0 1 12 2.001V.999zm-12 5C0 5.447.443 5 .999 5h1.002c.552 0 .999.443.999.999v1.002A.996.996 0 0 1 2.001 8H.999A.996.996 0 0 1 0 7.001V5.999zm6 0C6 5.447 6.443 5 6.999 5h1.002c.552 0 .999.443.999.999v1.002A.996.996 0 0 1 8.001 8H6.999A.996.996 0 0 1 6 7.001V5.999zm6 0c0-.552.443-.999.999-.999h1.002c.552 0 .999.443.999.999v1.002a.996.996 0 0 1-.999.999h-1.002A.996.996 0 0 1 12 7.001V5.999zm-12 5C0 10.447.443 10 .999 10h1.002c.552 0 .999.443.999.999v1.002a.996.996 0 0 1-.999.999H.999A.996.996 0 0 1 0 12.001v-1.002zm6 0c0-.552.443-.999.999-.999h1.002c.552 0 .999.443.999.999v1.002a.996.996 0 0 1-.999.999H6.999A.996.996 0 0 1 6 12.001v-1.002z" fill-rule="evenodd"/></svg>