<svg width="10" height="13" viewBox="0 0 10 13" xmlns="http://www.w3.org/2000/svg"><title>hint</title><path d="M4.875 0A4.89 4.89 0 0 0 0 4.875C0 6.662.975 8.206 2.438 9.1v1.463c0 1.38 1.056 2.437 2.437 2.437 1.381 0 2.438-1.056 2.438-2.438V9.1C8.774 8.206 9.75 6.662 9.75 4.875A4.89 4.89 0 0 0 4.875 0zm.813 10.563c0 .487-.325.812-.813.812-.488 0-.813-.325-.813-.813V9.75h1.625v.813zm.487-2.682l-.487.163V6.5c.487 0 .812-.325.812-.813 0-.487-.325-.812-.813-.812H4.063c-.487 0-.812.325-.812.813 0 .487.325.812.813.812v1.544l-.488-.163c-1.219-.569-1.95-1.706-1.95-3.006a3.26 3.26 0 0 1 3.25-3.25 3.26 3.26 0 0 1 3.25 3.25c0 1.3-.731 2.438-1.95 3.006z" fill="#C2B67D" fill-rule="evenodd"/></svg>