<svg width="21" height="21" viewBox="0 0 21 21" xmlns="http://www.w3.org/2000/svg"><title>nav-9</title><path d="M16.931 9.188c-.131-.788-.525-1.576-.918-2.363l1.968-1.969a1.269 1.269 0 0 0 0-1.837 1.418 1.418 0 0 0-.919-.394c-.393 0-.656.131-.918.394l-1.969 1.968c-.788-.393-1.575-.787-2.363-.918V1.313C11.813.655 11.156 0 10.5 0S9.187.656 9.187 1.313v2.756c-.787.131-1.574.525-2.362.918L4.988 3.02c-.263-.263-.657-.263-.92-.263-.393 0-.655.132-.918.394-.525.394-.525 1.312-.131 1.837l1.969 1.97c-.394.655-.788 1.443-.92 2.23H1.314C.655 9.188 0 9.845 0 10.5c0 .656.656 1.313 1.313 1.313h2.756c.131.787.525 1.575.919 2.362l-1.97 1.969a1.269 1.269 0 0 0 0 1.837c.263.263.657.394.92.394.393 0 .656-.131.918-.394l1.969-1.968c.656.393 1.444.787 2.362.918v2.756c0 .657.657 1.313 1.313 1.313.656 0 1.313-.656 1.313-1.313v-2.756c.787-.131 1.574-.525 2.362-.918l1.969 1.968c.262.263.656.394.919.394.393 0 .656-.131.918-.394a1.269 1.269 0 0 0 0-1.837l-1.968-1.969c.393-.656.787-1.444.918-2.363h2.756c.657 0 1.313-.656 1.313-1.312s-.656-1.313-1.313-1.313h-2.756zM6.014 10.5c0-2.231 2.255-4.466 4.486-4.466s4.494 2.252 4.494 4.484C14.994 12.749 12.73 15 10.5 15s-4.486-2.27-4.486-4.501z" fill="#F1FDF9" fill-rule="evenodd"/></svg>