<svg width="21" height="21" viewBox="0 0 21 21" xmlns="http://www.w3.org/2000/svg"><title>nav-3</title><path d="M15.487 3.938C14.831 1.705 12.863 0 10.5 0 8.006 0 6.038 1.706 5.381 3.938H3.937C1.708 3.938 0 5.643 0 7.874v9.188C0 19.293 1.706 21 3.938 21h13.124C19.294 21 21 19.294 21 17.062V7.876c0-2.231-1.706-3.938-3.938-3.938h-1.575zM12.995 4H8.042c.394-.788 1.408-2 2.458-2 .919 0 2.101 1.212 2.495 2zm4.068 15H3.938C3.15 19 2 17.85 2 17.062v-5.036c2.625 1.838 5.5 2.982 8.518 2.982 3.02 0 5.857-1.144 8.482-2.982v5.037C19 17.85 17.85 19 17.062 19zM12 12.994v-1.688c0-.787-.712-1.312-1.5-1.312S9 10.519 9 11.306v1.688c-2.756-.394-5.819-1.969-7-4.331v-.788C2 7.087 3.15 6 3.938 6h13.124C17.85 6 19 7.087 19 7.875v.788c-1.181 2.362-4.244 3.937-7 4.33z" fill="#F1FDF8" fill-rule="evenodd"/></svg>