<svg width="21" height="21" viewBox="0 0 21 21" xmlns="http://www.w3.org/2000/svg"><title>nav-1</title><path d="M1.313 0C.524 0 0 .525 0 1.313v6.372c0 .787.525 1.312 1.313 1.312H7.71C8.5 8.997 9 8.472 9 7.685V1.313C9 .524 8.475 0 7.687 0H1.313zM2 7V2h5v5H2zm11.34-7h6.348C20.474 0 21 .525 21 1.313v6.562c0 .787-.525 1.122-1.313 1.122H13.34c-.787 0-1.34-.525-1.34-1.312V1.313C12 .524 12.553 0 13.34 0zM14 7h5V2h-5v5zM1.312 12.003h6.375c.788 0 1.313.525 1.313 1.312v6.373C9 20.474 8.398 21 7.61 21H1.312C.525 21 0 20.475 0 19.687v-6.372c0-.787.525-1.312 1.313-1.312zM2 19h5v-5.002H2V19zm11.313-6.997h6.374c.788 0 1.313.525 1.313 1.312v6.373c0 .787-.525 1.312-1.313 1.312h-6.375C12.525 21 12 20.475 12 19.687v-6.372c0-.787.525-1.312 1.313-1.312zM14 19h5v-5.002h-5V19z" fill="#F1FDF8" fill-rule="evenodd"/></svg>