<svg width="19" height="21" viewBox="0 0 19 21" xmlns="http://www.w3.org/2000/svg"><title>nav-6</title><path d="M12.315 11.368c1.969-1.181 2.716-3.281 2.716-5.775C15.03 1.918 12.84 0 9.165 0S2.967 1.918 2.967 5.593c0 2.494 1.08 4.594 3.048 5.775-2.494.788-4.462 2.494-5.644 4.725-1.05 1.707.263 3.938 2.232 3.938h13.125c1.968 0 3.28-2.231 2.23-3.938-1.18-2.1-3.15-3.937-5.643-4.725zm.686-5.775c0 2.232-1.605 5.433-3.836 5.433S5.033 7.825 5.033 5.593c0-2.231 1.753-3.629 3.984-3.629S13 3.362 13 5.594zM9.165 13.05c2.5 0 4.735 1.492 6.221 3.668.231.339.4 1.314-.951 1.314H3.238c-.71 0-.79-1.08-.635-1.314 1.532-2.325 3.938-3.668 6.562-3.668z" fill="#F1FDF9" fill-rule="evenodd"/></svg>