<svg width="18" height="21" viewBox="0 0 18 21" xmlns="http://www.w3.org/2000/svg"><title>nav-8</title><path d="M15 19.914V9.184c0-.788.24-1.189 1.027-1.189.787 0 .993.401.993 1.189v10.73c0 .787-.305 1.096-1.093 1.096-.787 0-.927-.309-.927-1.096zm-4.993-.216V1.323c0-.787.48-1.323 1.01-1.323s1.01.536 1.01 1.323v18.375c0 .788-.48 1.33-1.01 1.33s-1.01-.542-1.01-1.33zm-5.012-.012v-5.25c0-.788.155-1.313.942-1.313.788 0 1.077.525 1.077 1.313v5.25c0 .787-.289 1.312-1.077 1.312-.787 0-.942-.525-.942-1.312zm-4.995 0V6.561c0-.788.4-1.313 1-1.313s1 .525 1 1.313v13.125c0 .787-.4 1.312-1 1.312s-1-.525-1-1.312z" fill="#F1FDF9" fill-rule="evenodd"/></svg>