<svg width="21" height="21" viewBox="0 0 21 21" xmlns="http://www.w3.org/2000/svg"><title>nav-5</title><path d="M17.378 14.983l-1.362-.039c-.788 0-1.313 1.525-1.313 2.313v.656l-2.539-2.536-.525-.394h-.787L3.119 15C2.33 15 2 14.306 2 13.519V3.354c0-.788.619-1.313 1.406-1.313h14.29c.788 0 1.313.525 1.313 1.313l-.007 10.165c0 .787-.837 1.464-1.624 1.464zM2.625 0A2.633 2.633 0 0 0 0 2.625v11.813a2.633 2.633 0 0 0 2.625 2.624H10.5l4.462 3.544c1.191.847 2.1.132 2.1-1.05v-2.494h1.313A2.633 2.633 0 0 0 21 14.438V2.626A2.633 2.633 0 0 0 18.375 0H2.625z" fill="#F1FDF9" fill-rule="evenodd"/></svg>