<svg width="18" height="21" viewBox="0 0 18 21" xmlns="http://www.w3.org/2000/svg"><title>nav-4</title><path d="M14.985 0h2.078C17.85 0 18 .628 18 1v19.027c0 .787-.338.973-.938.973H1.146C.357 21 0 20.475 0 19.687V1.114C0 .327.525 0 1.313 0h2.625c.787 0 1.085.517 1.085 1.114C5.023 1.711 4.788 2 4 2l-1.93.03L2 19h14l-.028-16.97h-.987s-1.062-.128-1.062-.916C13.923.327 14.985 0 14.985 0zm-4.08 2.03L8.02 2s-1.007-.027-1.007-1S8.02 0 8.02 0h2.886s1.11.149 1.11 1.114c0 .966-1.11.916-1.11.916zm1.11 5.011H6.561c-.787 0-1.539-.243-1.539-1.03 0-.788.752-1.024 1.54-1.024h5.451S13 5.107 13 6c0 .894-.986 1.041-.986 1.041zm-5.95 1.962h5.95c.787 0 .985.202.985.99 0 .787-.198.994-.986.994h-5.95c-.787 0-1.04-.207-1.04-.995 0-.787.253-.989 1.04-.989z" fill="#F1FDF9" fill-rule="evenodd"/></svg>