<svg width="16" height="16" viewBox="0 0 16 16" xmlns="http://www.w3.org/2000/svg"><title>quick-creation-pin</title><path d="M15.7 14.3l-3.8-3.8 2.7-2.7c.6-.6.7-1.4.4-2.2-.3-.8-1.2-1.3-2.1-1.2l-3.5.5L6 1.6c.3-.4.3-1-.1-1.3-.1-.2-.4-.3-.7-.3-.3 0-.5.1-.7.3L.3 4.5c-.4.4-.4 1 0 1.4.2.2.4.3.7.3.2 0 .4-.1.6-.2l3.3 3.3-.5 3.5c-.1.6.1 1.1.5 1.6.4.4.9.7 1.5.7.5 0 1-.2 1.4-.6l2.7-2.7 3.8 3.8c.2.2.5.3.7.3.2 0 .5-.1.7-.3.4-.3.4-.9 0-1.3zM5 3.4L7.6 6 6 7.6 3.4 5 5 3.4zm1.4 9.8l.5-3.7 1.3-1.3 1.3-1.3 3.7-.5-6.8 6.8z" fill-rule="evenodd"/></svg>