<svg width="14" height="14" viewBox="0 0 14 14" xmlns="http://www.w3.org/2000/svg"><title>quick-creation-type-1</title><path d="M9.1 14c-1.6 0-3.2-.6-4.4-1.8L1.8 9.3C-.6 6.9-.6 3 1.8.6c.8-.8 2.1-.8 2.9 0L6.3 2c.4.4.6.9.6 1.4 0 .5-.2 1.1-.6 1.5l-.8.8 2.9 2.9.7-.7c.8-.8 2.1-.8 2.9 0l1.4 1.4c.4.4.6.9.6 1.4 0 .5-.2 1.1-.6 1.4-1.1 1.3-2.6 1.9-4.3 1.9zM3.4 2c-1.6 1.6-1.6 4.2 0 5.8l2.9 2.9c.8.8 1.8 1.2 2.9 1.2 1.1 0 2.1-.4 2.9-1.2l-1.4-1.5-.8.8c-.8.8-2.1.8-2.9 0L4.1 7.1c-.8-.8-.8-2.1 0-2.9l.7-.7L3.4 2z" fill-rule="evenodd"/></svg>