<svg width="21" height="26" viewBox="0 0 21 26" xmlns="http://www.w3.org/2000/svg"><title>reminder</title><path d="M19.017 15.925V13.05c0-4.518-2.749-8.134-6.967-8.887V2.471c0-.753-.753-1.506-1.506-1.506s-1.506.603-1.506 1.506v1.692c-4.218.753-7.072 4.369-7.072 8.887v2.875L.15 17.9v.15c-.15.153-.15.304-.15.455 0 .15 0 .301.15.452v.3l.151.151s0 .151.15.151c.152.15.302.15.302.301h.15c.302.151.453.151.603.151h4.47c0 2.711 2.46 5.09 4.568 5.09 1.205 0 2.41-.451 3.163-1.355.904-.904 1.468-2.53 1.317-3.735h4.38c.905 0 1.534-.03 1.534-.934.15-.302 0-.603-.151-.904l-1.77-2.247zM4 15.988h13v.335L17.813 18H3.361L4 16.45c.15-.15 0-.16 0-.462zM17 14H4c0-3.314 1.94-7.653 6.544-7.653C15.15 6.347 17 10.687 17 14zm-6.413 9.009c-1.69 0-2.286-1.481-2.286-2.999h4.337c0 1.327-.361 2.999-2.05 2.999z" fill="#F1FDF9" fill-rule="evenodd"/></svg>