<svg width="21" height="21" viewBox="0 0 21 21" xmlns="http://www.w3.org/2000/svg"><title>search</title><path d="M20.606 18.769L16.537 14.7a8.986 8.986 0 0 0 1.838-5.512A9.131 9.131 0 0 0 9.187 0 9.131 9.131 0 0 0 0 9.188a9.131 9.131 0 0 0 9.188 9.187 8.98 8.98 0 0 0 5.512-1.838l4.069 4.07c.262.262.656.393.919.393.393 0 .656-.131.918-.394a1.269 1.269 0 0 0 0-1.837zM2.625 9.188c0-3.676 2.887-6.563 6.563-6.563 3.675 0 6.562 2.887 6.562 6.563 0 3.675-2.887 6.562-6.563 6.562-3.675 0-6.562-2.887-6.562-6.563z" fill="#F1FDF9" fill-rule="evenodd"/></svg>