<svg width="16" height="16" viewBox="0 0 16 16" xmlns="http://www.w3.org/2000/svg"><title>Shape</title><path d="M15 7h-2.1c-.1-.6-.4-1.2-.7-1.8l1.5-1.5c.4-.4.4-1 0-1.4-.2-.2-.5-.3-.7-.3-.3 0-.5.1-.7.3l-1.5 1.5c-.6-.3-1.2-.6-1.8-.7V1c0-.5-.5-1-1-1S7 .5 7 1v2.1c-.6.1-1.2.4-1.8.7L3.8 2.3c-.2-.2-.5-.2-.7-.2-.3 0-.5.1-.7.3-.4.3-.4 1-.1 1.4l1.5 1.5c-.3.5-.6 1.1-.7 1.7H1c-.5 0-1 .5-1 1s.5 1 1 1h2.1c.1.6.4 1.2.7 1.8l-1.5 1.5c-.4.4-.4 1 0 1.4.2.2.5.3.7.3.3 0 .5-.1.7-.3l1.5-1.5c.5.3 1.1.6 1.8.7V15c0 .5.5 1 1 1s1-.5 1-1v-2.1c.6-.1 1.2-.4 1.8-.7l1.5 1.5c.2.2.5.3.7.3.3 0 .5-.1.7-.3.4-.4.4-1 0-1.4l-1.5-1.5c.3-.5.6-1.1.7-1.8H15c.5 0 1-.5 1-1s-.5-1-1-1zm-7 4c-1.7 0-3-1.3-3-3s1.3-3 3-3 3 1.3 3 3-1.3 3-3 3z" fill-rule="evenodd"/></svg>