<svg width="22" height="22" viewBox="0 0 22 22" xmlns="http://www.w3.org/2000/svg"><title>tasks</title><path d="M1.4 22C.56 22 0 21.482 0 20.642L.038 6.01c0-.84.197-1.003 1.037-1.003.84 0 .963.163.963 1.003V20H15.08c.84 0 1.026.196 1.026 1.036 0 .84-.186.964-1.026.964H1.4zm4.056-4c-.84 0-1.418-.6-1.418-1.44V1.4c0-.84.76-1.4 1.6-1.4h14c.84 0 1.4.56 1.4 1.4v15.4c0 .84-.56 1.2-1.4 1.2H5.456zm13.582-2V2h-13v14h13zm-8.864-5c-.673 0-1.121-.4-1.121-1s.448-1 1.12-1h4.483c.673 0 1.12.4 1.12 1s-.447 1-1.12 1h-4.482zm.02-4c-.685 0-1.141-.4-1.141-1s.456-1 1.141-1h4.565c.685 0 1.142.4 1.142 1s-.457 1-1.142 1h-4.565z" fill="#F1FDF9" fill-rule="evenodd"/></svg>