<svg width="19" height="17" viewBox="0 0 19 17" xmlns="http://www.w3.org/2000/svg"><title>view_2</title><path d="M0 0h19v17H0V0zm0 1.5A1.5 1.5 0 0 0 1.505 3h4.99a1.499 1.499 0 1 0 0-3h-4.99A1.5 1.5 0 0 0 0 1.5zm11 0A1.5 1.5 0 0 0 12.505 3h4.99a1.499 1.499 0 1 0 0-3h-4.99A1.5 1.5 0 0 0 11 1.5zm-11 7A1.5 1.5 0 0 0 1.505 10h4.99a1.499 1.499 0 1 0 0-3h-4.99A1.5 1.5 0 0 0 0 8.5zm11 0a1.5 1.5 0 0 0 1.505 1.5h4.99a1.499 1.499 0 1 0 0-3h-4.99A1.5 1.5 0 0 0 11 8.5zm-11 7A1.5 1.5 0 0 0 1.505 17h4.99a1.499 1.499 0 1 0 0-3h-4.99A1.5 1.5 0 0 0 0 15.5zm11 0a1.5 1.5 0 0 0 1.505 1.5h4.99a1.499 1.499 0 1 0 0-3h-4.99A1.5 1.5 0 0 0 11 15.5z" fill="#FFF" fill-rule="evenodd"/></svg>