<svg width="19" height="17" viewBox="0 0 19 17" xmlns="http://www.w3.org/2000/svg"><title>view_1</title><path d="M0 0h19v17H0V0zm0 1.5C0 2.334.672 3 1.5 3h2C4.326 3 5 2.328 5 1.5 5 .666 4.328 0 3.5 0h-2C.674 0 0 .672 0 1.5zm7 0C7 2.334 7.672 3 8.5 3h2c.826 0 1.5-.672 1.5-1.5 0-.834-.672-1.5-1.5-1.5h-2C7.674 0 7 .672 7 1.5zm7 0c0 .834.672 1.5 1.5 1.5h2c.826 0 1.5-.672 1.5-1.5 0-.834-.672-1.5-1.5-1.5h-2c-.826 0-1.5.672-1.5 1.5zm-14 7C0 9.334.667 10 1.49 10h16.02a1.501 1.501 0 0 0 0-3H1.49C.677 7 0 7.672 0 8.5zm0 7c0 .834.667 1.5 1.49 1.5h16.02a1.501 1.501 0 0 0 0-3H1.49C.677 14 0 14.672 0 15.5z" fill="#FFF" fill-rule="evenodd"/></svg>