<?xml version="1.0" encoding="UTF-8"?>
<svg width="16px" height="16px" viewBox="0 0 16 16" version="1.1" xmlns="http://www.w3.org/2000/svg" xmlns:xlink="http://www.w3.org/1999/xlink">
    <!-- Generator: Sketch 43.2 (39069) - http://www.bohemiancoding.com/sketch -->
    <title>Shape</title>
    <desc>Created with Sketch.</desc>
    <defs></defs>
    <g id="Предзаявки" stroke="none" stroke-width="1" fill="none" fill-rule="evenodd">
        <g id="предзаявки:канбан-в-4-столбца" transform="translate(-1477.000000, -925.000000)" fill="#AE4241">
            <g id="content" transform="translate(70.000000, 6.000000)">
                <g id="additional" transform="translate(19.000000, 898.000000)">
                    <g id="Group-3" transform="translate(1353.000000, 0.000000)">
                        <path d="M43,21 C38.6,21 35,24.6 35,29 C35,33.4 38.6,37 43,37 C47.4,37 51,33.4 51,29 C51,24.6 47.4,21 43,21 L43,21 Z M49,29 C49,30.3 48.6,31.5 47.9,32.5 L39.5,24.1 C40.5,23.4 41.7,23 43,23 C46.3,23 49,25.7 49,29 L49,29 Z M37,29 C37,27.7 37.4,26.5 38.1,25.5 L46.5,33.9 C45.5,34.6 44.3,35 43,35 C39.7,35 37,32.3 37,29 L37,29 Z" id="Shape"></path>
                    </g>
                </g>
            </g>
        </g>
    </g>
</svg>