<?xml version="1.0" encoding="UTF-8"?>
<svg width="16px" height="16px" viewBox="0 0 16 16" version="1.1" xmlns="http://www.w3.org/2000/svg" xmlns:xlink="http://www.w3.org/1999/xlink">
    <!-- Generator: Sketch 43.2 (39069) - http://www.bohemiancoding.com/sketch -->
    <title>Combined Shape</title>
    <desc>Created with Sketch.</desc>
    <defs></defs>
    <g id="Symbols" stroke="none" stroke-width="1" fill="none" fill-rule="evenodd">
        <g id="create-in-header/предзаявку" transform="translate(-23.000000, -14.000000)" fill="#FFFFFF">
            <g id="create-in-header">
                <path d="M23,22 C23,26.4 26.6,30 31,30 C35.4,30 39,26.4 39,22 C39,17.6 35.4,14 31,14 C26.6,14 23,17.6 23,22 Z M25,22 C25,18.7 27.7,16 31,16 C34.3,16 37,18.7 37,22 C37,25.3 34.3,28 31,28 C27.7,28 25,25.3 25,22 Z M34.0137329,21 L32,21 L32,19.0235596 C32,18.4610596 31.555481,17.998291 30.992981,17.998291 C30.430481,17.998291 30,18.4610596 30,19.0235596 L30,21 L28.0144043,21 C27.4519043,21 27.0131836,21.4348755 27.0131836,21.9973755 C27.0131836,22.5598755 27.5379639,23.0028687 28.1004639,23.0028687 L30,23.0028687 L30,25.0053101 C30,25.5678101 30.430481,26.0100098 30.992981,26.0100098 C31.555481,26.0100098 32,25.5678101 32,25.0053101 L32,23.0028687 L34.0137329,23.0028687 C34.5762329,23.0028687 34.980957,22.5598755 34.980957,21.9973755 C34.980957,21.4348755 34.5762329,21 34.0137329,21 Z" id="Combined-Shape"></path>
            </g>
        </g>
    </g>
</svg>