<?xml version="1.0" encoding="UTF-8"?>
<svg width="16px" height="16px" viewBox="0 0 16 16" version="1.1" xmlns="http://www.w3.org/2000/svg" xmlns:xlink="http://www.w3.org/1999/xlink">
    <!-- Generator: Sketch 43.2 (39069) - http://www.bohemiancoding.com/sketch -->
    <title>Combined Shape</title>
    <desc>Created with Sketch.</desc>
    <defs></defs>
    <g id="Иконки" stroke="none" stroke-width="1" fill="none" fill-rule="evenodd">
        <g id="Group-3" transform="translate(-275.000000, 0.000000)" fill="#393B48">
            <g id="MAXICONS2_archive" transform="translate(275.000000, 0.000000)">
                <g id="Слой_1">
                    <g id="Group">
                        <path d="M15,9 C15.6,9 16,9.4 16,10 L16,15 C16,15.6 15.6,16 15,16 L1,16 C0.4,16 0,15.6 0,15 L0,10 C0,9.4 0.4,9 1,9 L1,1 C1,0.4 1.4,0 2,0 L14,0 C14.6,0 15,0.4 15,1 L15,9 Z M6,8 C5.4,8 5,7.6 5,7 C5,6.4 5.4,6 6,6 L10,6 C10.6,6 11,6.4 11,7 C11,7.6 10.6,8 10,8 L6,8 Z M6,5 C5.4,5 5,4.6 5,4 C5,3.4 5.4,3 6,3 L10,3 C10.6,3 11,3.4 11,4 C11,4.6 10.6,5 10,5 L6,5 Z M3,2 L3,9 L5,9 C6.1,9 7,9.9 7,11 L9,11 C9,9.9 9.9,9 11,9 L13,9 L13,2 L3,2 Z M14,14 L14,11 L11,11 C11,12.1 10.1,13 9,13 L7,13 C5.9,13 5,12.1 5,11 L2,11 L2,14 L14,14 Z" id="Combined-Shape"></path>
                    </g>
                </g>
            </g>
        </g>
    </g>
</svg>