<?xml version="1.0" encoding="UTF-8"?>
<svg width="15px" height="13px" viewBox="0 0 15 13" version="1.1" xmlns="http://www.w3.org/2000/svg" xmlns:xlink="http://www.w3.org/1999/xlink">
    <!-- Generator: Sketch 43.2 (39069) - http://www.bohemiancoding.com/sketch -->
    <title>Combined Shape</title>
    <desc>Created with Sketch.</desc>
    <defs></defs>
    <g id="элементы:-формы,-кнопки" stroke="none" stroke-width="1" fill="none" fill-rule="evenodd">
        <g id="Поле-даты" transform="translate(-381.000000, -99.000000)" fill="#000000">
            <g id="1-col" transform="translate(26.000000, 50.000000)">
                <g id="1-copy-2" transform="translate(0.000000, 49.000000)">
                    <g id="Group-2" transform="translate(355.000000, 0.000000)">
                        <path d="M0,0.998956561 C0,0.447248087 0.442660332,0 0.998956561,0 L2.00104344,0 C2.55275191,0 3,0.442660332 3,0.998956561 L3,2.00104344 C3,2.55275191 2.55733967,3 2.00104344,3 L0.998956561,3 C0.447248087,3 0,2.55733967 0,2.00104344 L0,0.998956561 Z M6,0.998956561 C6,0.447248087 6.44266033,0 6.99895656,0 L8.00104344,0 C8.55275191,0 9,0.442660332 9,0.998956561 L9,2.00104344 C9,2.55275191 8.55733967,3 8.00104344,3 L6.99895656,3 C6.44724809,3 6,2.55733967 6,2.00104344 L6,0.998956561 Z M12,0.998956561 C12,0.447248087 12.4426603,0 12.9989566,0 L14.0010434,0 C14.5527519,0 15,0.442660332 15,0.998956561 L15,2.00104344 C15,2.55275191 14.5573397,3 14.0010434,3 L12.9989566,3 C12.4472481,3 12,2.55733967 12,2.00104344 L12,0.998956561 Z M0,5.99895656 C0,5.44724809 0.442660332,5 0.998956561,5 L2.00104344,5 C2.55275191,5 3,5.44266033 3,5.99895656 L3,7.00104344 C3,7.55275191 2.55733967,8 2.00104344,8 L0.998956561,8 C0.447248087,8 0,7.55733967 0,7.00104344 L0,5.99895656 Z M6,5.99895656 C6,5.44724809 6.44266033,5 6.99895656,5 L8.00104344,5 C8.55275191,5 9,5.44266033 9,5.99895656 L9,7.00104344 C9,7.55275191 8.55733967,8 8.00104344,8 L6.99895656,8 C6.44724809,8 6,7.55733967 6,7.00104344 L6,5.99895656 Z M12,5.99895656 C12,5.44724809 12.4426603,5 12.9989566,5 L14.0010434,5 C14.5527519,5 15,5.44266033 15,5.99895656 L15,7.00104344 C15,7.55275191 14.5573397,8 14.0010434,8 L12.9989566,8 C12.4472481,8 12,7.55733967 12,7.00104344 L12,5.99895656 Z M0,10.9989566 C0,10.4472481 0.442660332,10 0.998956561,10 L2.00104344,10 C2.55275191,10 3,10.4426603 3,10.9989566 L3,12.0010434 C3,12.5527519 2.55733967,13 2.00104344,13 L0.998956561,13 C0.447248087,13 0,12.5573397 0,12.0010434 L0,10.9989566 Z M6,10.9989566 C6,10.4472481 6.44266033,10 6.99895656,10 L8.00104344,10 C8.55275191,10 9,10.4426603 9,10.9989566 L9,12.0010434 C9,12.5527519 8.55733967,13 8.00104344,13 L6.99895656,13 C6.44724809,13 6,12.5573397 6,12.0010434 L6,10.9989566 Z" id="Combined-Shape"></path>
                    </g>
                </g>
            </g>
        </g>
    </g>
</svg>