<?xml version="1.0" encoding="UTF-8"?>
<svg width="12px" height="12px" viewBox="0 0 12 12" version="1.1" xmlns="http://www.w3.org/2000/svg" xmlns:xlink="http://www.w3.org/1999/xlink">
    <!-- Generator: Sketch 43.2 (39069) - http://www.bohemiancoding.com/sketch -->
    <title>edit</title>
    <desc>Created with Sketch.</desc>
    <defs></defs>
    <g id="Предзаявки" stroke="none" stroke-width="1" fill="none" fill-rule="evenodd">
        <g id="редактирование-задачи-в-правой-части-закрыта" transform="translate(-477.000000, -294.000000)" fill="#909090">
            <path d="M485.335981,294.231035 L477.40911,302.157906 L477.008763,305.040405 C476.928693,305.600891 477.40911,306.081307 477.969595,306.001238 L480.852094,305.600891 L488.778965,297.67402 C489.099243,297.353742 489.099243,296.873326 488.778965,296.553048 L486.537022,294.311105 C486.216744,293.910758 485.656258,293.910758 485.335981,294.231035 L485.335981,294.231035 Z M487.177577,296.953395 L486.056605,298.074367 L484.935634,296.953395 L486.056605,295.832423 L487.177577,296.953395 L487.177577,296.953395 Z M478.850359,304.159641 L479.010498,302.798462 L483.734592,298.074367 L484.855564,299.195338 L480.211539,303.999503 L478.850359,304.159641 L478.850359,304.159641 Z" id="edit"></path>
        </g>
    </g>
</svg>