<?xml version="1.0" encoding="UTF-8"?>
<svg width="14px" height="16px" viewBox="0 0 14 16" version="1.1" xmlns="http://www.w3.org/2000/svg" xmlns:xlink="http://www.w3.org/1999/xlink">
    <!-- Generator: Sketch 43.2 (39069) - http://www.bohemiancoding.com/sketch -->
    <title>graph</title>
    <desc>Created with Sketch.</desc>
    <defs></defs>
    <g id="Предзаявки" stroke="none" stroke-width="1" fill="none" fill-rule="evenodd">
        <g id="предзаявки:выбрана-правая-часть,-расширяющаяся,-большая" transform="translate(-721.000000, -914.000000)" fill="#000000">
            <g id="content" transform="translate(70.000000, 6.000000)">
                <g id="right:wide" transform="translate(419.000000, 114.000000)">
                    <g id="customer" transform="translate(24.000000, 72.000000)">
                        <g id="table" transform="translate(0.000000, 688.000000)">
                            <g id="2" transform="translate(1.000000, 34.000000)">
                                <path d="M220,16 C219.4,16 219,15.6 219,15 L219,7 C219,6.4 219.4,6 220,6 C220.6,6 221,6.4 221,7 L221,15 C221,15.6 220.6,16 220,16 L220,16 Z M216,16 C215.4,16 215,15.6 215,15 L215,1 C215,0.4 215.4,0 216,0 C216.6,0 217,0.4 217,1 L217,15 C217,15.6 216.6,16 216,16 L216,16 Z M212,16 C211.4,16 211,15.6 211,15 L211,11 C211,10.4 211.4,10 212,10 C212.6,10 213,10.4 213,11 L213,15 C213,15.6 212.6,16 212,16 L212,16 Z M208,16 C207.4,16 207,15.6 207,15 L207,5 C207,4.4 207.4,4 208,4 C208.6,4 209,4.4 209,5 L209,15 C209,15.6 208.6,16 208,16 L208,16 Z" id="graph"></path>
                            </g>
                        </g>
                    </g>
                </g>
            </g>
        </g>
    </g>
</svg>