<?xml version="1.0" encoding="UTF-8"?>
<svg width="10px" height="13px" viewBox="0 0 10 13" version="1.1" xmlns="http://www.w3.org/2000/svg" xmlns:xlink="http://www.w3.org/1999/xlink">
    <!-- Generator: Sketch 43.2 (39069) - http://www.bohemiancoding.com/sketch -->
    <title>hint</title>
    <desc>Created with Sketch.</desc>
    <defs></defs>
    <g id="Предзаявки" stroke="none" stroke-width="1" fill="none" fill-rule="evenodd">
        <g id="предзаявки:выбрана-правая-часть,-расширяющаяся,-большая" transform="translate(-523.000000, -792.000000)" fill="#C2B67D">
            <g id="content" transform="translate(70.000000, 6.000000)">
                <g id="right:wide" transform="translate(419.000000, 114.000000)">
                    <g id="customer" transform="translate(24.000000, 72.000000)">
                        <g id="form_new" transform="translate(0.000000, 210.000000)">
                            <g id="Group-3" transform="translate(1.000000, 383.000000)">
                                <path d="M13.875,7 C11.19375,7 9,9.19375 9,11.875 C9,13.6625 9.975,15.20625 11.4375,16.1 L11.4375,17.5625 C11.4375,18.94375 12.49375,20 13.875,20 C15.25625,20 16.3125,18.94375 16.3125,17.5625 L16.3125,16.1 C17.775,15.20625 18.75,13.6625 18.75,11.875 C18.75,9.19375 16.55625,7 13.875,7 L13.875,7 Z M14.6875,17.5625 C14.6875,18.05 14.3625,18.375 13.875,18.375 C13.3875,18.375 13.0625,18.05 13.0625,17.5625 L13.0625,16.75 L14.6875,16.75 L14.6875,17.5625 L14.6875,17.5625 Z M15.175,14.88125 L14.6875,15.04375 L14.6875,13.5 C15.175,13.5 15.5,13.175 15.5,12.6875 C15.5,12.2 15.175,11.875 14.6875,11.875 L13.0625,11.875 C12.575,11.875 12.25,12.2 12.25,12.6875 C12.25,13.175 12.575,13.5 13.0625,13.5 L13.0625,15.04375 L12.575,14.88125 C11.35625,14.3125 10.625,13.175 10.625,11.875 C10.625,10.0875 12.0875,8.625 13.875,8.625 C15.6625,8.625 17.125,10.0875 17.125,11.875 C17.125,13.175 16.39375,14.3125 15.175,14.88125 L15.175,14.88125 Z" id="hint"></path>
                            </g>
                        </g>
                    </g>
                </g>
            </g>
        </g>
    </g>
</svg>