<?xml version="1.0" encoding="UTF-8"?>
<svg width="22px" height="5px" viewBox="0 0 22 5" version="1.1" xmlns="http://www.w3.org/2000/svg" xmlns:xlink="http://www.w3.org/1999/xlink">
    <!-- Generator: Sketch 43.2 (39069) - http://www.bohemiancoding.com/sketch -->
    <title>more</title>
    <desc>Created with Sketch.</desc>
    <defs></defs>
    <g id="Symbols" stroke="none" stroke-width="1" fill="none" fill-rule="evenodd">
        <g id="левая-часть-окна-предзаявки/закрытый-вид" transform="translate(-323.000000, -9.000000)" fill="#000000">
            <g id="1-copy-16">
                <path d="M325.5,14 C324.119288,14 323,12.8807119 323,11.5 C323,10.1192881 324.119288,9 325.5,9 C326.880712,9 328,10.1192881 328,11.5 C328,12.8807119 326.880712,14 325.5,14 Z M333.833333,14 C332.452621,14 331.333333,12.8807119 331.333333,11.5 C331.333333,10.1192881 332.452621,9 333.833333,9 C335.214045,9 336.333333,10.1192881 336.333333,11.5 C336.333333,12.8807119 335.214045,14 333.833333,14 Z M342.166667,14 C340.785955,14 339.666667,12.8807119 339.666667,11.5 C339.666667,10.1192881 340.785955,9 342.166667,9 C343.547379,9 344.666667,10.1192881 344.666667,11.5 C344.666667,12.8807119 343.547379,14 342.166667,14 Z" id="more"></path>
            </g>
        </g>
    </g>
</svg>