<?xml version="1.0" encoding="UTF-8"?>
<svg width="18px" height="21px" viewBox="0 0 18 21" version="1.1" xmlns="http://www.w3.org/2000/svg" xmlns:xlink="http://www.w3.org/1999/xlink">
    <!-- Generator: Sketch 43.2 (39069) - http://www.bohemiancoding.com/sketch -->
    <title>nav-8</title>
    <desc>Created with Sketch.</desc>
    <defs></defs>
    <g id="Symbols" stroke="none" stroke-width="1" fill="none" fill-rule="evenodd">
        <g id="main-menu/default" transform="translate(-19.000000, -559.000000)" fill="#F1FDF9">
            <path d="M34,578.913513 L34,568.183777 C34,567.396277 34.2392801,566.995178 35.0267801,566.995178 C35.8142801,566.995178 36.0198364,567.396277 36.0198364,568.183777 L36.0198364,578.913513 C36.0198364,579.701013 35.714502,580.010193 34.927002,580.010193 C34.139502,580.010193 34,579.701013 34,578.913513 Z M29.0066528,578.698486 L29.0066528,560.323486 C29.0066528,559.535986 29.4860618,559 30.016571,559 C30.5470803,559 31.0264893,559.535986 31.0264893,560.323486 L31.0264893,578.698486 C31.0264893,579.485986 30.5470803,580.027527 30.016571,580.027527 C29.4860618,580.027527 29.0066528,579.485986 29.0066528,578.698486 Z M23.9951172,578.685974 L23.9951172,573.435974 C23.9951172,572.648474 24.15,572.123474 24.9375,572.123474 C25.725,572.123474 26.013855,572.648474 26.013855,573.435974 L26.013855,578.685974 C26.013855,579.473474 25.725,579.998474 24.9375,579.998474 C24.15,579.998474 23.9951172,579.473474 23.9951172,578.685974 Z M19,578.685974 L19,565.560974 C19,564.773474 19.4,564.248474 20,564.248474 C20.6,564.248474 21,564.773474 21,565.560974 L21,578.685974 C21,579.473474 20.6,579.998474 20,579.998474 C19.4,579.998474 19,579.473474 19,578.685974 Z" id="nav-8"></path>
        </g>
    </g>
</svg>