<?xml version="1.0" encoding="UTF-8"?>
<svg width="22px" height="5px" viewBox="0 0 22 5" version="1.1" xmlns="http://www.w3.org/2000/svg" xmlns:xlink="http://www.w3.org/1999/xlink">
    <!-- Generator: Sketch 43.2 (39069) - http://www.bohemiancoding.com/sketch -->
    <title>Combined Shape</title>
    <desc>Created with Sketch.</desc>
    <defs></defs>
    <g id="Symbols" stroke="none" stroke-width="1" fill="none" fill-rule="evenodd">
        <g id="Artboard" transform="translate(-18.000000, -515.000000)" fill="#F1FDF8">
            <path d="M20.5,520 C19.1192881,520 18,518.880712 18,517.5 C18,516.119288 19.1192881,515 20.5,515 C21.8807119,515 23,516.119288 23,517.5 C23,518.880712 21.8807119,520 20.5,520 Z M28.8333333,520 C27.4526215,520 26.3333333,518.880712 26.3333333,517.5 C26.3333333,516.119288 27.4526215,515 28.8333333,515 C30.2140452,515 31.3333333,516.119288 31.3333333,517.5 C31.3333333,518.880712 30.2140452,520 28.8333333,520 Z M37.1666667,520 C35.7859548,520 34.6666667,518.880712 34.6666667,517.5 C34.6666667,516.119288 35.7859548,515 37.1666667,515 C38.5473785,515 39.6666667,516.119288 39.6666667,517.5 C39.6666667,518.880712 38.5473785,520 37.1666667,520 Z" id="Combined-Shape"></path>
        </g>
    </g>
</svg>