<?xml version="1.0" encoding="UTF-8"?>
<svg width="21px" height="21px" viewBox="0 0 21 21" version="1.1" xmlns="http://www.w3.org/2000/svg" xmlns:xlink="http://www.w3.org/1999/xlink">
    <!-- Generator: Sketch 43.2 (39069) - http://www.bohemiancoding.com/sketch -->
    <title>nav-3</title>
    <desc>Created with Sketch.</desc>
    <defs></defs>
    <g id="Symbols" stroke="none" stroke-width="1" fill="none" fill-rule="evenodd">
        <g id="main-menu/default" transform="translate(-18.000000, -295.000000)" fill="#F1FDF8">
            <path d="M33.4875,298.9375 C32.83125,296.70625 30.8625,295 28.5,295 C26.00625,295 24.0375,296.70625 23.38125,298.9375 L21.9375,298.9375 C19.70625,298.9375 18,300.64375 18,302.875 L18,312.0625 C18,314.29375 19.70625,316 21.9375,316 L35.0625,316 C37.29375,316 39,314.29375 39,312.0625 L39,302.875 C39,300.64375 37.29375,298.9375 35.0625,298.9375 L33.4875,298.9375 Z M30.994751,299 L26.0418701,299 C26.4356201,298.2125 27.45,297 28.5,297 C29.41875,297 30.601001,298.2125 30.994751,299 Z M35.0625,314 L21.9375,314 C21.15,314 20,312.85 20,312.0625 L20,307.026001 C22.625,308.863501 25.4995605,310.007935 28.5183105,310.007935 C31.5370605,310.007935 34.375,308.863501 37,307.026001 L37,312.0625 C37,312.85 35.85,314 35.0625,314 Z M30,307.99375 L30,306.306396 C30,305.518896 29.2875,304.993896 28.5,304.993896 C27.7125,304.993896 27,305.518896 27,306.306396 L27,307.99375 C24.24375,307.6 21.18125,306.025 20,303.6625 L20,302.875 C20,302.0875 21.15,301 21.9375,301 L35.0625,301 C35.85,301 37,302.0875 37,302.875 L37,303.6625 C35.81875,306.025 32.75625,307.6 30,307.99375 Z" id="nav-3"></path>
        </g>
    </g>
</svg>