<?xml version="1.0" encoding="UTF-8"?>
<svg width="21px" height="21px" viewBox="0 0 21 21" version="1.1" xmlns="http://www.w3.org/2000/svg" xmlns:xlink="http://www.w3.org/1999/xlink">
    <!-- Generator: Sketch 43.2 (39069) - http://www.bohemiancoding.com/sketch -->
    <title>nav-9</title>
    <desc>Created with Sketch.</desc>
    <defs></defs>
    <g id="Symbols" stroke="none" stroke-width="1" fill="none" fill-rule="evenodd">
        <g id="main-menu/default" transform="translate(-18.000000, -613.000000)" fill="#F1FDF9">
            <path d="M34.93125,622.1875 C34.8,621.4 34.40625,620.6125 34.0125,619.825 L35.98125,617.85625 C36.50625,617.33125 36.50625,616.54375 35.98125,616.01875 C35.71875,615.75625 35.325,615.625 35.0625,615.625 C34.66875,615.625 34.40625,615.75625 34.14375,616.01875 L32.175,617.9875 C31.3875,617.59375 30.6,617.2 29.8125,617.06875 L29.8125,614.3125 C29.8125,613.65625 29.15625,613 28.5,613 C27.84375,613 27.1875,613.65625 27.1875,614.3125 L27.1875,617.06875 C26.4,617.2 25.6125,617.59375 24.825,617.9875 L22.9875,616.01875 C22.725,615.75625 22.33125,615.75625 22.06875,615.75625 C21.675,615.75625 21.4125,615.8875 21.15,616.15 C20.625,616.54375 20.625,617.4625 21.01875,617.9875 L22.9875,619.95625 C22.59375,620.6125 22.2,621.4 22.06875,622.1875 L19.3125,622.1875 C18.65625,622.1875 18,622.84375 18,623.5 C18,624.15625 18.65625,624.8125 19.3125,624.8125 L22.06875,624.8125 C22.2,625.6 22.59375,626.3875 22.9875,627.175 L21.01875,629.14375 C20.49375,629.66875 20.49375,630.45625 21.01875,630.98125 C21.28125,631.24375 21.675,631.375 21.9375,631.375 C22.33125,631.375 22.59375,631.24375 22.85625,630.98125 L24.825,629.0125 C25.48125,629.40625 26.26875,629.8 27.1875,629.93125 L27.1875,632.6875 C27.1875,633.34375 27.84375,634 28.5,634 C29.15625,634 29.8125,633.34375 29.8125,632.6875 L29.8125,629.93125 C30.6,629.8 31.3875,629.40625 32.175,629.0125 L34.14375,630.98125 C34.40625,631.24375 34.8,631.375 35.0625,631.375 C35.45625,631.375 35.71875,631.24375 35.98125,630.98125 C36.50625,630.45625 36.50625,629.66875 35.98125,629.14375 L34.0125,627.175 C34.40625,626.51875 34.8,625.73125 34.93125,624.8125 L37.6875,624.8125 C38.34375,624.8125 39,624.15625 39,623.5 C39,622.84375 38.34375,622.1875 37.6875,622.1875 L34.93125,622.1875 Z M24.0144043,623.5 C24.0144043,621.26875 26.26875,619.034424 28.5,619.034424 C30.73125,619.034424 32.9937744,621.28645 32.9937744,623.5177 C32.9937744,625.74895 30.73125,628.000977 28.5,628.000977 C26.26875,628.000977 24.0144043,625.73125 24.0144043,623.5 Z" id="nav-9"></path>
        </g>
    </g>
</svg>