<?xml version="1.0" encoding="UTF-8"?>
<svg width="21px" height="21px" viewBox="0 0 21 21" version="1.1" xmlns="http://www.w3.org/2000/svg" xmlns:xlink="http://www.w3.org/1999/xlink">
    <!-- Generator: Sketch 43.2 (39069) - http://www.bohemiancoding.com/sketch -->
    <title>nav-5</title>
    <desc>Created with Sketch.</desc>
    <defs></defs>
    <g id="Symbols" stroke="none" stroke-width="1" fill="none" fill-rule="evenodd">
        <g id="main-menu/default" transform="translate(-18.000000, -403.000000)" fill="#F1FDF9">
            <path d="M35.3778076,417.982837 L34.0157471,417.944092 C33.2282471,417.944092 32.7032471,419.469092 32.7032471,420.256592 L32.7032471,420.912842 L30.1643066,418.376587 L29.6393066,417.982837 L28.8518066,417.982837 L21.1188965,418 C20.3313965,418 20,417.30625 20,416.51875 L20,406.353882 C20,405.566382 20.6188721,405.041382 21.4063721,405.041382 L35.6968994,405.041382 C36.4843994,405.041382 37.0093994,405.566382 37.0093994,406.353882 L37.0020752,416.51875 C37.0020752,417.30625 36.1653076,417.982837 35.3778076,417.982837 Z M20.625,403 C19.18125,403 18,404.18125 18,405.625 L18,417.4375 C18,418.88125 19.18125,420.0625 20.625,420.0625 L28.5,420.0625 L32.9625,423.60625 C34.1529541,424.452881 35.0625,423.7375 35.0625,422.55625 L35.0625,420.0625 L36.375,420.0625 C37.81875,420.0625 39,418.88125 39,417.4375 L39,405.625 C39,404.18125 37.81875,403 36.375,403 L20.625,403 Z" id="nav-5"></path>
        </g>
    </g>
</svg>