<?xml version="1.0" encoding="UTF-8"?>
<svg width="18px" height="21px" viewBox="0 0 18 21" version="1.1" xmlns="http://www.w3.org/2000/svg" xmlns:xlink="http://www.w3.org/1999/xlink">
    <!-- Generator: Sketch 43.2 (39069) - http://www.bohemiancoding.com/sketch -->
    <title>nav-4</title>
    <desc>Created with Sketch.</desc>
    <defs></defs>
    <g id="Symbols" stroke="none" stroke-width="1" fill="none" fill-rule="evenodd">
        <g id="main-menu/default" transform="translate(-19.000000, -349.000000)" fill="#F1FDF9">
            <path d="M33.9846191,349 L36.0625,349 C36.85,349 37,349.627808 37,350 L37,369.026733 C37,369.814233 36.6616211,370 36.0625,370 L20.1446533,370 C19.3571533,370 19,369.475 19,368.6875 L19,350.11438 C19,349.32688 19.525,349 20.3125,349 L22.9375,349 C23.725,349 24.0234375,349.517334 24.0234375,350.11438 C24.0234375,350.711426 23.7875,351 23,351 L21.0692139,351.030151 L21,368 L35,368 L34.9718018,351.030151 L33.9846191,351.030151 C33.9846191,351.030151 32.9230957,350.90188 32.9230957,350.11438 C32.9230957,349.32688 33.9846191,349 33.9846191,349 Z M29.9052734,351.030151 L27.0192871,351 C27.0192871,351 26.0118408,350.972656 26.0118408,350 C26.0118408,349.027344 27.0192871,349 27.0192871,349 L29.9052734,349 C29.9052734,349 31.0142822,349.148682 31.0142822,350.11438 C31.0142822,351.080078 29.9052734,351.030151 29.9052734,351.030151 Z M31.0142822,356.041138 L25.5625,356.041138 C24.775,356.041138 24.0234375,355.797998 24.0234375,355.010498 C24.0234375,354.222998 24.775,353.987305 25.5625,353.987305 L31.0142822,353.987305 C31.0142822,353.987305 32,354.106201 32,355 C32,355.893799 31.0142822,356.041138 31.0142822,356.041138 Z M25.0649414,358.003418 L31.0142822,358.003418 C31.8017822,358.003418 32,358.204565 32,358.992065 C32,359.779565 31.8017822,359.987183 31.0142822,359.987183 L25.0649414,359.987183 C24.2774414,359.987183 24.0234375,359.779565 24.0234375,358.992065 C24.0234375,358.204565 24.2774414,358.003418 25.0649414,358.003418 Z" id="nav-4"></path>
        </g>
    </g>
</svg>