<?xml version="1.0" encoding="UTF-8"?>
<svg width="19px" height="21px" viewBox="0 0 19 21" version="1.1" xmlns="http://www.w3.org/2000/svg" xmlns:xlink="http://www.w3.org/1999/xlink">
    <!-- Generator: Sketch 43.2 (39069) - http://www.bohemiancoding.com/sketch -->
    <title>nav-6</title>
    <desc>Created with Sketch.</desc>
    <defs></defs>
    <g id="Symbols" stroke="none" stroke-width="1" fill="none" fill-rule="evenodd">
        <g id="main-menu/default" transform="translate(-19.000000, -457.000000)" fill="#F1FDF9">
            <path d="M31.3151756,468.368262 C33.2839256,467.187012 34.0306396,465.087012 34.0306396,462.593262 C34.0306396,458.918262 31.8401756,457 28.1651756,457 C24.4901756,457 21.9665527,458.918262 21.9665527,462.593262 C21.9665527,465.087012 23.0464256,467.187012 25.0151756,468.368262 C22.5214256,469.155762 20.5526756,470.862012 19.3714256,473.093262 C18.3214256,474.799512 19.6339256,477.030762 21.6026756,477.030762 L34.7276756,477.030762 C36.6964256,477.030762 38.0089256,474.799512 36.9589256,473.093262 C35.7776756,470.993262 33.8089256,469.155762 31.3151756,468.368262 Z M32.0006104,462.593262 C32.0006104,464.824512 30.3964256,468.026123 28.1651756,468.026123 C25.9339256,468.026123 24.0332031,464.824512 24.0332031,462.593262 C24.0332031,460.362012 25.7856567,458.964478 28.0169067,458.964478 C30.2481567,458.964478 32.0006104,460.362012 32.0006104,462.593262 Z M28.1651756,470.049194 C30.6641749,470.049194 32.9002573,471.540819 34.3859863,473.717407 C34.6169614,474.055785 34.7867432,475.030762 33.4349365,475.030762 C32.0831299,475.030762 26.1714478,475.030762 22.2382202,475.030762 C21.5288696,475.030762 21.4488606,473.950801 21.6026756,473.717407 C23.1351058,471.392147 25.541066,470.049194 28.1651756,470.049194 Z" id="nav-6"></path>
        </g>
    </g>
</svg>