<?xml version="1.0" encoding="UTF-8"?>
<svg width="21px" height="21px" viewBox="0 0 21 21" version="1.1" xmlns="http://www.w3.org/2000/svg" xmlns:xlink="http://www.w3.org/1999/xlink">
    <!-- Generator: Sketch 43.2 (39069) - http://www.bohemiancoding.com/sketch -->
    <title>nav-1</title>
    <desc>Created with Sketch.</desc>
    <defs></defs>
    <g id="Symbols" stroke="none" stroke-width="1" fill="none" fill-rule="evenodd">
        <g id="main-menu/default" transform="translate(-18.000000, -189.000000)" fill="#F1FDF8">
            <path d="M19.3125,189 C18.525,189 18,189.525 18,190.3125 L18,196.684875 C18,197.472375 18.525,197.997375 19.3125,197.997375 L25.7112427,197.997375 C26.4987427,197.997375 27,197.472375 27,196.684875 L27,190.3125 C27,189.525 26.475,189 25.6875,189 L19.3125,189 Z M20,196 L20,191 L25,191 L25,196 L20,196 Z M31.340271,189 L37.6875,189 C38.475,189 39,189.525 39,190.3125 L39,196.875 C39,197.6625 38.475,197.997375 37.6875,197.997375 L31.340271,197.997375 C30.552771,197.997375 30,197.472375 30,196.684875 L30,190.3125 C30,189.525 30.552771,189 31.340271,189 Z M32,196 L37,196 L37,191 L32,191 L32,196 Z M19.3125,201.002808 L25.6875,201.002808 C26.475,201.002808 27,201.527808 27,202.315308 L27,208.6875 C27,209.475 26.3976074,210 25.6101074,210 L19.3125,210 C18.525,210 18,209.475 18,208.6875 L18,202.315308 C18,201.527808 18.525,201.002808 19.3125,201.002808 Z M20,208 L25,208 L25,202.997925 L20,202.997925 L20,208 Z M31.3125,201.002808 L37.6875,201.002808 C38.475,201.002808 39,201.527808 39,202.315308 L39,208.6875 C39,209.475 38.475,210 37.6875,210 L31.3125,210 C30.525,210 30,209.475 30,208.6875 L30,202.315308 C30,201.527808 30.525,201.002808 31.3125,201.002808 Z M32,208 L37,208 L37,202.997925 L32,202.997925 L32,208 Z" id="nav-1"></path>
        </g>
    </g>
</svg>