<?xml version="1.0" encoding="UTF-8"?>
<svg width="16px" height="14px" viewBox="0 0 16 14" version="1.1" xmlns="http://www.w3.org/2000/svg" xmlns:xlink="http://www.w3.org/1999/xlink">
    <!-- Generator: Sketch 43.2 (39069) - http://www.bohemiancoding.com/sketch -->
    <title>quick-creation-type-3</title>
    <desc>Created with Sketch.</desc>
    <defs></defs>
    <g id="Symbols" stroke="none" stroke-width="1" fill="none" fill-rule="evenodd">
        <g id="общение/создание" transform="translate(-375.000000, -14.000000)" fill="#000000">
            <g id="create_task">
                <g id="create_task:open" transform="translate(18.000000, 14.000000)">
                    <g id="Group-2">
                        <path d="M369.8,8.1 C368.4,7.8 367.1,8.3 366.2,9.2 C365.6,8.4 364.9,7.8 364,7.4 C365.2,6.7 366,5.4 366,4 C366,1.8 364.2,0 362,0 C359.8,0 358,1.8 358,4 C358,5.5 358.8,6.7 360,7.4 C358.2,8.2 357,10.1 357,12.1 C357,13.1 357.8,13.9 358.8,13.9 L371.2,13.9 C372.2,13.9 373,13.1 373,12.1 L373,12.1 C373,10.2 371.7,8.4 369.8,8.1 L369.8,8.1 Z M362,2 C363.1,2 364,2.9 364,4 C364,5.1 363.1,6 362,6 C360.9,6 360,5.1 360,4 C360,2.9 360.9,2 362,2 L362,2 Z M359,12 C359,10.3 360.3,9 362,9 C363.7,9 365,10.3 365,12 L359,12 L359,12 Z M367,12 C367,10.9 367.9,10 369,10 C370.1,10 371,10.9 371,12 L367,12 Z M369,8 C367.895431,8 367,7.1045695 367,6 C367,4.8954305 367.895431,4 369,4 C370.104569,4 371,4.8954305 371,6 C371,7.1045695 370.104569,8 369,8 Z" id="quick-creation-type-3"></path>
                    </g>
                </g>
            </g>
        </g>
    </g>
</svg>