<?xml version="1.0" encoding="UTF-8"?>
<svg width="14px" height="14px" viewBox="0 0 14 14" version="1.1" xmlns="http://www.w3.org/2000/svg" xmlns:xlink="http://www.w3.org/1999/xlink">
    <!-- Generator: Sketch 43.2 (39069) - http://www.bohemiancoding.com/sketch -->
    <title>quick-creation-type-1</title>
    <desc>Created with Sketch.</desc>
    <defs></defs>
    <g id="Symbols" stroke="none" stroke-width="1" fill="none" fill-rule="evenodd">
        <g id="общение/создание" transform="translate(-321.000000, -14.000000)" fill="#000000">
            <g id="create_task">
                <g id="create_task:open" transform="translate(18.000000, 14.000000)">
                    <g id="Group-2">
                        <path d="M312.1,14 C310.5,14 308.9,13.4 307.7,12.2 L304.8,9.3 C302.4,6.9 302.4,3 304.8,0.6 L304.8,0.6 C305.6,-0.2 306.9,-0.2 307.7,0.6 L309.3,2 C309.7,2.4 309.9,2.9 309.9,3.4 C309.9,3.9 309.7,4.5 309.3,4.9 L308.5,5.7 L311.4,8.6 L312.1,7.9 C312.9,7.1 314.2,7.1 315,7.9 L316.4,9.3 C316.8,9.7 317,10.2 317,10.7 C317,11.2 316.8,11.8 316.4,12.1 L316.4,12.1 C315.3,13.4 313.8,14 312.1,14 L312.1,14 Z M306.4,2 C304.8,3.6 304.8,6.2 306.4,7.8 L309.3,10.7 C310.1,11.5 311.1,11.9 312.2,11.9 C313.3,11.9 314.3,11.5 315.1,10.7 L313.7,9.2 L312.9,10 C312.1,10.8 310.8,10.8 310,10 L307.1,7.1 C306.3,6.3 306.3,5 307.1,4.2 L307.8,3.5 L306.4,2 L306.4,2 Z" id="quick-creation-type-1"></path>
                    </g>
                </g>
            </g>
        </g>
    </g>
</svg>