<?xml version="1.0" encoding="UTF-8"?>
<svg width="16px" height="12px" viewBox="0 0 16 12" version="1.1" xmlns="http://www.w3.org/2000/svg" xmlns:xlink="http://www.w3.org/1999/xlink">
    <!-- Generator: Sketch 43.2 (39069) - http://www.bohemiancoding.com/sketch -->
    <title>quick-creation-type-2</title>
    <desc>Created with Sketch.</desc>
    <defs></defs>
    <g id="Symbols" stroke="none" stroke-width="1" fill="none" fill-rule="evenodd">
        <g id="общение/создание" transform="translate(-347.000000, -15.000000)" fill="#348668">
            <g id="create_task">
                <g id="create_task:open" transform="translate(18.000000, 14.000000)">
                    <g id="Group-2">
                        <path d="M344,13 L330,13 C329.4,13 329,12.6 329,12 L329,2 C329,1.4 329.4,1 330,1 L344,1 C344.6,1 345,1.4 345,2 L345,12 C345,12.6 344.6,13 344,13 L344,13 Z M331,11 L343,11 L343,4.3 L337.6,8.8 C337.2,9.1 336.7,9.1 336.3,8.8 L331,4.3 L331,11 L331,11 Z M332.6,3 L337,6.7 L341.4,3 L332.6,3 L332.6,3 Z" id="quick-creation-type-2"></path>
                    </g>
                </g>
            </g>
        </g>
    </g>
</svg>