<?xml version="1.0" encoding="UTF-8"?>
<svg width="14px" height="16px" viewBox="0 0 14 16" version="1.1" xmlns="http://www.w3.org/2000/svg" xmlns:xlink="http://www.w3.org/1999/xlink">
    <!-- Generator: Sketch 43.2 (39069) - http://www.bohemiancoding.com/sketch -->
    <title>quick-creation-type-responsible</title>
    <desc>Created with Sketch.</desc>
    <defs></defs>
    <g id="Symbols" stroke="none" stroke-width="1" fill="none" fill-rule="evenodd">
        <g id="задачи/создание" transform="translate(-19.000000, -159.000000)" fill="#000000">
            <g id="create_task">
                <g id="create_task:open" transform="translate(18.000000, 14.000000)">
                    <g id="Group" transform="translate(0.000000, 71.000000)">
                        <path d="M14.6829909,87 C13.7829909,85.4 12.2829909,84 10.3829909,83.4 C11.8829909,82.5 12.9829909,80.9 12.9829909,79 C12.9829909,76.2 10.7829909,74 7.98299093,74 C5.18299093,74 2.98299093,76.2 2.98299093,79 C2.98299093,80.9 4.08299093,82.5 5.58299093,83.4 C3.68299093,84 2.18299093,85.3 1.28299093,87 C0.482990928,88.3 1.48299093,90 2.98299093,90 L12.9829909,90 C14.4829909,90 15.4829909,88.3 14.6829909,87 L14.6829909,87 Z M7.98299093,76 C9.68299093,76 10.9829909,77.3 10.9829909,79 C10.9829909,80.7 9.68299093,82 7.98299093,82 C6.28299093,82 4.98299093,80.7 4.98299093,79 C4.98299093,77.3 6.28299093,76 7.98299093,76 L7.98299093,76 Z M2.98299093,88 L2.98299093,88 C4.08299093,86 5.78299093,85 7.98299093,85 C10.1829909,85 11.8829909,86 12.9829909,88 L2.98299093,88 L2.98299093,88 Z" id="quick-creation-type-responsible"></path>
                    </g>
                </g>
            </g>
        </g>
    </g>
</svg>