<?xml version="1.0" encoding="UTF-8"?>
<svg width="21px" height="26px" viewBox="0 0 21 26" version="1.1" xmlns="http://www.w3.org/2000/svg" xmlns:xlink="http://www.w3.org/1999/xlink">
    <!-- Generator: Sketch 43.2 (39069) - http://www.bohemiancoding.com/sketch -->
    <title>reminder</title>
    <desc>Created with Sketch.</desc>
    <defs></defs>
    <g id="Symbols" stroke="none" stroke-width="1" fill="none" fill-rule="evenodd">
        <g id="main-menu/default" transform="translate(-17.000000, -104.000000)" fill="#F1FDF9">
            <g id="notify" transform="translate(17.000000, 101.000000)">
                <path d="M19.0174561,18.9249268 L19.0174561,16.0504212 C19.0174561,11.5315133 16.2680687,7.9163869 12.0504212,7.16323557 C12.0504212,7.16323557 12.0504212,7.16323557 12.0504212,7.01260531 L12.0504212,5.47143555 C12.0504212,4.71828422 11.2972699,3.96513289 10.5441186,3.96513289 C9.79096726,3.96513289 9.03781593,4.56765395 9.03781593,5.47143555 L9.03781593,7.01260531 C9.03781593,7.01260531 9.03781593,7.01260531 9.03781593,7.16323557 C4.8201685,7.9163869 1.96569824,11.5315133 1.96569824,16.0504212 L1.96569824,18.9249268 L0.150630265,20.901186 C0.150630265,20.901186 0.150630265,20.901186 0.150630265,21.0518163 C3.39301504e-13,21.2024466 0,21.3530768 0,21.5037071 C0,21.6543374 3.39301504e-13,21.8049676 0.150630265,21.9555979 L0.150630265,22.1062282 C0.150630265,22.1062282 0.150630265,22.1062282 0.150630265,22.2568584 L0.301260531,22.4074887 C0.301260531,22.4074887 0.301260531,22.558119 0.451890796,22.558119 C0.602521062,22.7087492 0.753151327,22.7087492 0.753151327,22.8593795 L0.903781593,22.8593795 C1.20504212,23.0100098 1.35567239,23.0100098 1.50630265,23.0100098 L5.9765625,23.0100098 C5.9765625,25.7213545 8.43529487,28.1008425 10.5441186,28.1008425 C11.7491607,28.1008425 12.9542028,27.6489517 13.7073542,26.7451701 C14.6111358,25.8413885 15.1749223,24.2150519 15.024292,23.0100098 L19.4047852,23.0100098 C20.3085667,23.0100098 20.9376069,22.9794134 20.9376069,22.0756319 C21.0882372,21.7743713 20.9376069,21.4731108 20.7869766,21.1718503 L19.0174561,18.9249268 Z M4,18.9884033 L17,18.9884033 C17,19.2896639 17,19.3232422 17,19.3232422 L17.8133545,21 L3.36096191,21 L4,19.449707 C4.15063027,19.2990768 4,19.2896639 4,18.9884033 Z M17,17 L4,17 C4,13.6861342 5.93918932,9.34729004 10.5441186,9.34729004 C15.1490479,9.34729004 17,13.6861342 17,17 Z M10.5871582,26.0087891 C8.8974511,26.0087891 8.30133057,24.527832 8.30133057,23.0100098 C9.98779297,23.0100098 10.6821289,23.0100098 12.6376953,23.0100098 C12.6376953,24.3373413 12.2768653,26.0087891 10.5871582,26.0087891 Z" id="reminder"></path>
            </g>
        </g>
    </g>
</svg>