<?xml version="1.0" encoding="UTF-8"?>
<svg width="21px" height="21px" viewBox="0 0 21 21" version="1.1" xmlns="http://www.w3.org/2000/svg" xmlns:xlink="http://www.w3.org/1999/xlink">
    <!-- Generator: Sketch 43.2 (39069) - http://www.bohemiancoding.com/sketch -->
    <title>search</title>
    <desc>Created with Sketch.</desc>
    <defs></defs>
    <g id="Symbols" stroke="none" stroke-width="1" fill="none" fill-rule="evenodd">
        <g id="main-menu/default" transform="translate(-18.000000, -149.000000)" fill="#F1FDF9">
            <path d="M38.60625,167.76875 L34.5375,163.7 C35.71875,162.125 36.375,160.2875 36.375,158.1875 C36.375,153.06875 32.30625,149 27.1875,149 C22.06875,149 18,153.06875 18,158.1875 C18,163.30625 22.06875,167.375 27.1875,167.375 C29.2875,167.375 31.125,166.71875 32.7,165.5375 L36.76875,169.60625 C37.03125,169.86875 37.425,170 37.6875,170 C38.08125,170 38.34375,169.86875 38.60625,169.60625 C39.13125,169.08125 39.13125,168.29375 38.60625,167.76875 L38.60625,167.76875 Z M20.625,158.1875 C20.625,154.5125 23.5125,151.625 27.1875,151.625 C30.8625,151.625 33.75,154.5125 33.75,158.1875 C33.75,161.8625 30.8625,164.75 27.1875,164.75 C23.5125,164.75 20.625,161.8625 20.625,158.1875 L20.625,158.1875 Z" id="search"></path>
        </g>
    </g>
</svg>