<?xml version="1.0" encoding="UTF-8"?>
<svg width="16px" height="16px" viewBox="0 0 16 16" version="1.1" xmlns="http://www.w3.org/2000/svg" xmlns:xlink="http://www.w3.org/1999/xlink">
    <!-- Generator: Sketch 43.2 (39069) - http://www.bohemiancoding.com/sketch -->
    <title>Shape</title>
    <desc>Created with Sketch.</desc>
    <defs></defs>
    <g id="Рабочий-стол" stroke="none" stroke-width="1" fill="none" fill-rule="evenodd">
        <g transform="translate(-1374.000000, -33.000000)" id="Shape" fill="#000000">
            <path d="M1389,40 L1386.9,40 C1386.8,39.4 1386.5,38.8 1386.2,38.2 L1387.7,36.7 C1388.1,36.3 1388.1,35.7 1387.7,35.3 C1387.5,35.1 1387.2,35 1387,35 C1386.7,35 1386.5,35.1 1386.3,35.3 L1384.8,36.8 C1384.2,36.5 1383.6,36.2 1383,36.1 L1383,34 C1383,33.5 1382.5,33 1382,33 C1381.5,33 1381,33.5 1381,34 L1381,36.1 C1380.4,36.2 1379.8,36.5 1379.2,36.8 L1377.8,35.3 C1377.6,35.1 1377.3,35.1 1377.1,35.1 C1376.8,35.1 1376.6,35.2 1376.4,35.4 C1376,35.7 1376,36.4 1376.3,36.8 L1377.8,38.3 C1377.5,38.8 1377.2,39.4 1377.1,40 L1375,40 C1374.5,40 1374,40.5 1374,41 C1374,41.5 1374.5,42 1375,42 L1377.1,42 C1377.2,42.6 1377.5,43.2 1377.8,43.8 L1376.3,45.3 C1375.9,45.7 1375.9,46.3 1376.3,46.7 C1376.5,46.9 1376.8,47 1377,47 C1377.3,47 1377.5,46.9 1377.7,46.7 L1379.2,45.2 C1379.7,45.5 1380.3,45.8 1381,45.9 L1381,48 C1381,48.5 1381.5,49 1382,49 C1382.5,49 1383,48.5 1383,48 L1383,45.9 C1383.6,45.8 1384.2,45.5 1384.8,45.2 L1386.3,46.7 C1386.5,46.9 1386.8,47 1387,47 C1387.3,47 1387.5,46.9 1387.7,46.7 C1388.1,46.3 1388.1,45.7 1387.7,45.3 L1386.2,43.8 C1386.5,43.3 1386.8,42.7 1386.9,42 L1389,42 C1389.5,42 1390,41.5 1390,41 C1390,40.5 1389.5,40 1389,40 L1389,40 Z M1382,44 C1380.3,44 1379,42.7 1379,41 C1379,39.3 1380.3,38 1382,38 C1383.7,38 1385,39.3 1385,41 C1385,42.7 1383.7,44 1382,44 L1382,44 Z"></path>
        </g>
    </g>
</svg>