<?xml version="1.0" encoding="UTF-8"?>
<svg width="22px" height="22px" viewBox="0 0 22 22" version="1.1" xmlns="http://www.w3.org/2000/svg" xmlns:xlink="http://www.w3.org/1999/xlink">
    <!-- Generator: Sketch 43.2 (39069) - http://www.bohemiancoding.com/sketch -->
    <title>tasks</title>
    <desc>Created with Sketch.</desc>
    <defs></defs>
    <g id="Symbols" stroke="none" stroke-width="1" fill="none" fill-rule="evenodd">
        <g id="main-menu/default" transform="translate(-17.000000, -63.000000)" fill="#F1FDF9">
            <path d="M18.4,85 C17.56,85 17,84.4823584 17,83.6423584 L17.0383057,69.0092773 C17.0383057,68.1692773 17.2350488,68.0061035 18.0750488,68.0061035 C18.9150488,68.0061035 19.0383057,68.1692773 19.0383057,69.0092773 L19.0383057,83 L32.0804199,83 C32.9204199,83 33.1059326,83.1956445 33.1059326,84.0356445 C33.1059326,84.8756445 32.9204199,85 32.0804199,85 L18.4,85 Z M22.4556641,81 C21.6156641,81 21.0383057,80.4003271 21.0383057,79.5603271 L21.0383057,64.4 C21.0383057,63.56 21.7983057,63 22.6383057,63 L36.6383057,63 C37.4783057,63 38.0383057,63.56 38.0383057,64.4 L38.0383057,79.8 C38.0383057,80.64 37.4783057,81 36.6383057,81 L22.4556641,81 Z M36.0383057,79 L36.0383057,65 L23.0383057,65 L23.0383057,79 L36.0383057,79 Z M27.1736148,74 C26.5012257,74 26.0529663,73.6 26.0529663,73 C26.0529663,72.4 26.5012257,72 27.1736148,72 L31.6562086,72 C32.3285976,72 32.776857,72.4 32.776857,73 C32.776857,73.6 32.3285976,74 31.6562086,74 L27.1736148,74 Z M27.1942403,70 C26.5094759,70 26.0529663,69.6 26.0529663,69 C26.0529663,68.4 26.5094759,68 27.1942403,68 L31.7593363,68 C32.4441007,68 32.9006104,68.4 32.9006104,69 C32.9006104,69.6 32.4441007,70 31.7593363,70 L27.1942403,70 Z" id="tasks"></path>
        </g>
    </g>
</svg>