<?xml version="1.0" encoding="UTF-8"?>
<svg width="19px" height="17px" viewBox="0 0 19 17" version="1.1" xmlns="http://www.w3.org/2000/svg" xmlns:xlink="http://www.w3.org/1999/xlink">
    <!-- Generator: Sketch 43.2 (39069) - http://www.bohemiancoding.com/sketch -->
    <title>view_1</title>
    <desc>Created with Sketch.</desc>
    <defs></defs>
    <g id="Symbols" stroke="none" stroke-width="1" fill="none" fill-rule="evenodd">
        <path d="M0,0 L19,0 L19,17 L0,17 L0,0 Z M-3.55271368e-15,1.5 C-3.55271368e-15,2.33420277 0.671646689,3 1.50016487,3 L3.49983513,3 C4.32567775,3 5,2.32842712 5,1.5 C5,0.665797234 4.32835331,0 3.49983513,0 L1.50016487,0 C0.674322248,0 -3.55271368e-15,0.671572875 -3.55271368e-15,1.5 Z M7,1.5 C7,2.33420277 7.67164669,3 8.50016487,3 L10.4998351,3 C11.3256778,3 12,2.32842712 12,1.5 C12,0.665797234 11.3283533,0 10.4998351,0 L8.50016487,0 C7.67432225,0 7,0.671572875 7,1.5 Z M14,1.5 C14,2.33420277 14.6716467,3 15.5001649,3 L17.4998351,3 C18.3256778,3 19,2.32842712 19,1.5 C19,0.665797234 18.3283533,0 17.4998351,0 L15.5001649,0 C14.6743222,0 14,0.671572875 14,1.5 Z M-3.55271368e-15,8.5 C-3.55271368e-15,9.33420277 0.66749783,10 1.49089813,10 L17.5091019,10 C18.3237799,10 19,9.32842712 19,8.5 C19,7.66579723 18.3325022,7 17.5091019,7 L1.49089813,7 C0.676220059,7 -3.55271368e-15,7.67157288 -3.55271368e-15,8.5 Z M-3.55271368e-15,15.5 C-3.55271368e-15,16.3342028 0.66749783,17 1.49089813,17 L17.5091019,17 C18.3237799,17 19,16.3284271 19,15.5 C19,14.6657972 18.3325022,14 17.5091019,14 L1.49089813,14 C0.676220059,14 -3.55271368e-15,14.6715729 -3.55271368e-15,15.5 Z" id="view_1" fill="#FFFFFF"></path>
    </g>
</svg>