<?xml version="1.0" encoding="UTF-8"?>
<svg width="19px" height="17px" viewBox="0 0 19 17" version="1.1" xmlns="http://www.w3.org/2000/svg" xmlns:xlink="http://www.w3.org/1999/xlink">
    <!-- Generator: Sketch 43.2 (39069) - http://www.bohemiancoding.com/sketch -->
    <title>view_2</title>
    <desc>Created with Sketch.</desc>
    <defs></defs>
    <g id="Symbols" stroke="none" stroke-width="1" fill="none" fill-rule="evenodd">
        <path d="M0,0 L19,0 L19,17 L0,17 L0,0 Z M0,1.5 C0,2.33420277 0.673694512,3 1.50473881,3 L6.49526119,3 C7.33168447,3 8,2.32842712 8,1.5 C8,0.665797234 7.32630549,0 6.49526119,0 L1.50473881,0 C0.66831553,0 0,0.671572875 0,1.5 Z M11,1.5 C11,2.33420277 11.6736945,3 12.5047388,3 L17.4952612,3 C18.3316845,3 19,2.32842712 19,1.5 C19,0.665797234 18.3263055,0 17.4952612,0 L12.5047388,0 C11.6683155,0 11,0.671572875 11,1.5 Z M0,8.5 C0,9.33420277 0.673694512,10 1.50473881,10 L6.49526119,10 C7.33168447,10 8,9.32842712 8,8.5 C8,7.66579723 7.32630549,7 6.49526119,7 L1.50473881,7 C0.66831553,7 0,7.67157288 0,8.5 Z M11,8.5 C11,9.33420277 11.6736945,10 12.5047388,10 L17.4952612,10 C18.3316845,10 19,9.32842712 19,8.5 C19,7.66579723 18.3263055,7 17.4952612,7 L12.5047388,7 C11.6683155,7 11,7.67157288 11,8.5 Z M0,15.5 C0,16.3342028 0.673694512,17 1.50473881,17 L6.49526119,17 C7.33168447,17 8,16.3284271 8,15.5 C8,14.6657972 7.32630549,14 6.49526119,14 L1.50473881,14 C0.66831553,14 0,14.6715729 0,15.5 Z M11,15.5 C11,16.3342028 11.6736945,17 12.5047388,17 L17.4952612,17 C18.3316845,17 19,16.3284271 19,15.5 C19,14.6657972 18.3263055,14 17.4952612,14 L12.5047388,14 C11.6683155,14 11,14.6715729 11,15.5 Z" id="view_2" fill="#FFFFFF"></path>
    </g>
</svg>