<?xml version="1.0" encoding="UTF-8"?>
<svg width="19px" height="17px" viewBox="0 0 19 17" version="1.1" xmlns="http://www.w3.org/2000/svg" xmlns:xlink="http://www.w3.org/1999/xlink">
    <!-- Generator: Sketch 43.2 (39069) - http://www.bohemiancoding.com/sketch -->
    <title>view_3</title>
    <desc>Created with Sketch.</desc>
    <defs></defs>
    <g id="Symbols" stroke="none" stroke-width="1" fill="none" fill-rule="evenodd">
        <path d="M0,0 L19,0 L19,17 L0,17 L0,0 Z M2.5,17 C3.33420277,17 4,16.3276769 4,15.4983244 L4,11.5016756 C4,10.6711894 3.32842712,10 2.5,10 C1.66579723,10 1,10.6723231 1,11.5016756 L1,15.4983244 C1,16.3288106 1.67157288,17 2.5,17 Z M9.5,17 C10.3342028,17 11,16.3304216 11,15.5044548 L11,6.49554521 C11,5.67955446 10.3284271,5 9.5,5 C8.66579723,5 8,5.6695784 8,6.49554521 L8,15.5044548 C8,16.3204455 8.67157288,17 9.5,17 Z M16.5,17 C17.3342028,17 18,16.3245604 18,15.4913634 L18,1.50863659 C18,0.666420147 17.3284271,3.55271368e-15 16.5,3.55271368e-15 C15.6657972,3.55271368e-15 15,0.67543961 15,1.50863659 L15,15.4913634 C15,16.3335799 15.6715729,17 16.5,17 Z" id="view_3" fill="#FFFFFF"></path>
    </g>
</svg>